#!OML:ASF F:\VICON\USERDATA\INSTALL\rory3\rory3.ASF
:FULLY-SPECIFIED
:DEGREES
902
root -2.23347 18.9084 -7.63033 -3.49191 -60.5861 6.81568
lowerback 8.50596 1.30138 -3.29874
upperback -7.56628 1.31562 0.950931
thorax -13.1774 0.956589 2.64718
lowerneck -25.8247 -6.06805 -16.5179
upperneck -7.73986 -3.99531 12.0725
head 2.13722 -1.30123 6.15191
rclavicle 1.49089e-015 -9.54166e-015
rhumerus 86.2494 -27.4829 -32.3042
rradius 35.3793
rwrist -1.86691
rhand -27.7696 1.76816
rfingers 7.12502
rthumb -1.16338 -28.2084
lclavicle 1.49089e-015 -9.54166e-015
lhumerus 100.435 29.3005 51.1107
lradius 20.236
lwrist -16.7968
lhand -6.26483 27.8032
lfingers 7.12502
lthumb 19.5778 56.8375
rfemur -10.0605 8.31452 8.49249
rtibia 33.5309
rfoot 1.12798 -10.8297
rtoes 26.0772
lfemur -2.6264 2.07766 -17.9277
ltibia 27.2927
lfoot 14.0124 0.566822
ltoes -23.2228
903
root -2.25006 19.1386 -7.54961 -3.31941 -60.8656 7.02211
lowerback 7.93684 1.23055 -3.13048
upperback -7.83648 1.24003 0.878916
thorax -13.1244 0.899282 2.49446
lowerneck -26.2097 -6.11543 -16.4391
upperneck -7.06727 -4.03167 11.9064
head 2.38848 -1.32144 6.07202
rclavicle -1.85864e-014 -1.66979e-014
rhumerus 86.0027 -27.0083 -31.875
rradius 35.2447
rwrist -0.517298
rhand -29.6746 0.0223513
rfingers 7.12502
rthumb -3.0032 -29.9362
lclavicle -1.85864e-014 -1.66979e-014
lhumerus 101.692 28.3702 53.5033
lradius 19.2173
lwrist -18.7036
lhand -8.66591 28.0493
lfingers 7.12502
lthumb 17.268 57.3022
rfemur -10.5029 8.41102 8.10741
rtibia 32.603
rfoot 1.97139 -15.1632
rtoes 28.9346
lfemur -3.08366 1.29988 -17.9301
ltibia 26.3912
lfoot 17.4803 1.99621
ltoes -19.4234
904
root -2.26522 19.3593 -7.47771 -3.41901 -61.0972 7.54639
lowerback 7.34099 1.19853 -3.22391
upperback -8.08363 1.1787 0.787065
thorax -13.0381 0.871119 2.46425
lowerneck -26.549 -6.21392 -16.5246
upperneck -6.37285 -4.09843 11.9549
head 2.65846 -1.34433 6.08785
rclavicle -3.05134e-014 -7.95139e-016
rhumerus 86.2485 -26.6885 -32.1783
rradius 34.8264
rwrist -0.219262
rhand -30.0204 0.473598
rfingers 7.12502
rthumb -3.33713 -29.48
lclavicle -3.05134e-014 -7.95139e-016
lhumerus 102.605 27.5267 55.4906
lradius 18.4994
lwrist -19.1059
lhand -11.3975 29.277
lfingers 7.12502
lthumb 14.6375 58.7404
rfemur -10.9069 8.43054 7.58649
rtibia 31.9375
rfoot 1.86116 -17.8551
rtoes 31.0556
lfemur -3.60007 1.53776 -18.0224
ltibia 25.9303
lfoot 20.3407 0.76391
ltoes -14.7029
905
root -2.27584 19.5663 -7.41477 -3.35251 -61.3218 7.89675
lowerback 6.75152 1.16844 -3.39525
upperback -8.32882 1.12153 0.795612
thorax -12.9598 0.858411 2.5868
lowerneck -26.6248 -6.16754 -16.5356
upperneck -5.88462 -4.03116 11.9105
head 2.80907 -1.31288 6.07824
rclavicle -1.19271e-015 -1.03368e-014
rhumerus 86.5761 -26.4044 -32.4714
rradius 34.3958
rwrist 0.212336
rhand -30.4248 0.579529
rfingers 7.12502
rthumb -3.72769 -29.3676
lclavicle -1.19271e-015 -1.03368e-014
lhumerus 103.304 26.7719 57.3353
lradius 17.9962
lwrist -18.8999
lhand -12.8397 31.2054
lfingers 7.12502
lthumb 13.2477 60.7644
rfemur -11.3084 8.56038 7.24622
rtibia 31.6075
rfoot -0.240822 -19.6038
rtoes 32.953
lfemur -4.17463 2.13602 -17.9095
ltibia 25.7993
lfoot 22.2396 -0.680249
ltoes -12.1058
906
root -2.2759 19.7627 -7.35645 -2.91474 -61.4613 7.79657
lowerback 6.3097 1.12155 -3.38504
upperback -8.57383 1.07013 0.884491
thorax -12.9696 0.837806 2.69248
lowerneck -26.5089 -6.12841 -16.7099
upperneck -5.52105 -3.95269 11.9135
head 2.8994 -1.27513 6.11367
rclavicle 6.75868e-015 7.95139e-015
rhumerus 86.9991 -26.1207 -32.818
rradius 33.8531
rwrist 0.810042
rhand -30.9719 0.595645
rfingers 7.12502
rthumb -4.25599 -29.3416
lclavicle 6.75868e-015 7.95139e-015
lhumerus 104.691 25.5443 60.533
lradius 17.1577
lwrist -20.0898
lhand -13.7359 31.7378
lfingers 7.12502
lthumb 12.3837 61.351
rfemur -11.6005 8.6461 7.2308
rtibia 31.5347
rfoot -4.50191 -21.4509
rtoes 32.5442
lfemur -4.7174 2.48316 -17.554
ltibia 25.9459
lfoot 23.1411 -1.37753
ltoes -9.55304
